<svg width="50.000000" height="50.000000" viewBox="0 0 50 50" fill="none" xmlns="http://www.w3.org/2000/svg" xmlns:xlink="http://www.w3.org/1999/xlink">
	<desc>
			Created with Pixso.
	</desc>
	<defs>
		<clipPath id="clip19_8">
			<rect id="mdi:floor-plan" rx="0.000000" width="49.000000" height="49.000000" transform="translate(0.500000 0.500000)" fill="white" fill-opacity="0"/>
		</clipPath>
	</defs>
	<rect id="mdi:floor-plan" rx="0.000000" width="49.000000" height="49.000000" transform="translate(0.500000 0.500000)" fill="#FFFFFF" fill-opacity="0"/>
	<g clip-path="url(#clip19_8)">
		<path id="Vector" d="M20.83 10.41L20.83 20.83L18.75 20.83L18.75 10.41L10.41 10.41L10.41 27.08L18.75 27.08L18.75 25L20.83 25L20.83 35.41L18.75 35.41L18.75 29.16L10.41 29.16L10.41 39.58L25 39.58L25 35.41L27.08 35.41L27.08 39.58L39.58 39.58L39.58 35.41L43.75 35.41L43.75 43.75L6.25 43.75L6.25 6.25L43.75 6.25L43.75 31.25L39.58 31.25L39.58 20.83L27.08 20.83L27.08 31.25L25 31.25L25 18.75L39.58 18.75L39.58 10.41L20.83 10.41Z" fill="#1F4E93" fill-opacity="1.000000" fill-rule="nonzero"/>
	</g>
</svg>
