<svg width="28.168457" height="45.312500" viewBox="0 0 28.1685 45.3125" fill="none" xmlns="http://www.w3.org/2000/svg" xmlns:xlink="http://www.w3.org/1999/xlink">
	<desc>
			Created with Pixso.
	</desc>
	<defs/>
	<path id="Vector" d="M18.9 21.87L12.44 21.87C12.05 21.87 11.68 21.71 11.4 21.43C11.13 21.15 10.98 20.78 10.98 20.38L10.98 17.1C10.98 16.71 11.13 16.34 11.4 16.06C11.68 15.78 12.05 15.62 12.44 15.62L18.88 15.62C19.69 15.62 20.35 16.29 20.35 17.1L20.35 20.38C20.35 20.58 20.32 20.77 20.25 20.95C20.18 21.13 20.07 21.29 19.93 21.43C19.8 21.57 19.64 21.68 19.46 21.75C19.28 21.83 19.09 21.87 18.9 21.87L18.9 21.87Z" fill="#1F4E93" fill-opacity="1.000000" fill-rule="nonzero"/>
	<path id="Vector" d="M26.6 3.12L18.79 3.12L18.79 3.36L26.13 6.41C26.22 6.44 26.31 6.5 26.38 6.56C26.45 6.63 26.51 6.71 26.54 6.8C26.58 6.89 26.6 6.99 26.6 7.09C26.6 7.19 26.57 7.28 26.53 7.37C26.44 7.56 26.27 7.7 26.08 7.76C25.88 7.83 25.67 7.82 25.48 7.74L18.79 4.96L18.79 7.87C24.07 8.47 28.16 12.95 28.16 18.39L28.16 40.65C28.16 41.26 28.04 41.87 27.81 42.43C27.58 43 27.23 43.51 26.8 43.94C26.37 44.38 25.86 44.72 25.29 44.95C24.73 45.19 24.12 45.31 23.51 45.31L0.82 45.31C0.15 45.31 -0.12 44.67 0.04 44.01L3.16 32.81L3.16 14.06C3.16 6.33 9.46 0 17.23 0L26.59 0C27 -0.01 27.4 0.16 27.69 0.45C27.99 0.74 28.16 1.14 28.16 1.55C28.16 1.96 28 2.36 27.71 2.66C27.41 2.95 27.02 3.12 26.6 3.12ZM25.04 18.39C25.04 17.41 24.85 16.44 24.47 15.54C24.1 14.63 23.55 13.81 22.86 13.12C22.17 12.42 21.34 11.87 20.44 11.5C19.53 11.12 18.56 10.93 17.59 10.93L13.74 10.93C12.76 10.93 11.79 11.12 10.89 11.5C9.98 11.87 9.16 12.42 8.47 13.12C7.78 13.81 7.23 14.63 6.85 15.54C6.48 16.44 6.29 17.41 6.29 18.39L6.29 29.68L25.04 29.68L25.04 18.39ZM6.29 32.81C6.29 32.81 8.02 38.99 8.91 42.18L23.51 42.18C24.36 42.18 25.04 41.5 25.04 40.65L25.04 31.25L6.29 31.25L6.29 32.81ZM11 5.1C9.18 6.37 7.78 8.16 6.99 10.24C8.47 9.01 10.26 8.21 12.17 7.92C11.75 7.59 11.42 7.16 11.22 6.66C11.01 6.17 10.93 5.63 11 5.1ZM14.09 6.87C14.41 6.87 14.72 6.78 14.98 6.6C15.24 6.42 15.44 6.17 15.56 5.87C15.67 5.57 15.7 5.25 15.63 4.94C15.55 4.63 15.39 4.35 15.16 4.14L14.11 5.32L14.11 3.75C13.9 3.74 13.7 3.78 13.51 3.86C13.32 3.94 13.14 4.05 13 4.2C12.85 4.35 12.74 4.52 12.66 4.71C12.58 4.9 12.54 5.1 12.54 5.31C12.54 6.18 13.22 6.87 14.09 6.87Z" fill="#1F4E93" fill-opacity="1.000000" fill-rule="nonzero"/>
</svg>
