<svg width="42.000000" height="41.000000" viewBox="0 0 42 41" fill="none" xmlns="http://www.w3.org/2000/svg" xmlns:xlink="http://www.w3.org/1999/xlink">
	<desc>
			Created with Pixso.
	</desc>
	<defs>
		<clipPath id="clip71_16">
			<rect id="fa6-solid:helmet-safety" rx="0.000000" width="41.000000" height="40.000000" transform="translate(0.500000 0.500000)" fill="white" fill-opacity="0"/>
		</clipPath>
	</defs>
	<rect id="fa6-solid:helmet-safety" rx="0.000000" width="41.000000" height="40.000000" transform="translate(0.500000 0.500000)" fill="#FFFFFF" fill-opacity="0"/>
	<g clip-path="url(#clip71_16)">
		<path id="Vector" d="M18.66 2.56C17.37 2.56 16.33 3.7 16.33 5.12L16.33 13.28C16.33 13.73 16 14.09 15.59 14.09C15.33 14.09 15.08 13.94 14.95 13.68L11.45 6.96C6.05 9.88 2.33 15.99 2.33 23.06L2.33 28.18L39.66 28.18L39.66 22.87C39.6 15.88 35.89 9.86 30.54 6.96L27.04 13.68C26.91 13.94 26.66 14.09 26.4 14.09C25.99 14.09 25.66 13.73 25.66 13.28L25.66 5.12C25.66 3.7 24.62 2.56 23.33 2.56L18.66 2.56ZM1.21 30.75C0.53 30.75 0 31.34 0 32.07C0 32.45 0.14 32.81 0.42 33.03C2 34.3 8.15 38.43 21 38.43C33.84 38.43 39.99 34.3 41.57 33.03C41.85 32.8 42 32.45 42 32.07C42 31.34 41.46 30.75 40.78 30.75L1.21 30.75Z" fill="#1F4E93" fill-opacity="1.000000" fill-rule="nonzero"/>
	</g>
</svg>
