<svg width="50.000000" height="50.000000" viewBox="0 0 50 50" fill="none" xmlns="http://www.w3.org/2000/svg" xmlns:xlink="http://www.w3.org/1999/xlink">
	<desc>
			Created with Pixso.
	</desc>
	<defs>
		<clipPath id="clip40_230">
			<rect id="game-icons:fire-axe" rx="0.000000" width="49.000000" height="49.000000" transform="translate(0.500000 0.500000)" fill="white" fill-opacity="0"/>
		</clipPath>
	</defs>
	<rect id="game-icons:fire-axe" rx="0.000000" width="49.000000" height="49.000000" transform="translate(0.500000 0.500000)" fill="#FFFFFF" fill-opacity="0"/>
	<g clip-path="url(#clip40_230)">
		<path id="Vector" d="M14.23 1.93L10.53 11.32L14.73 14.44L19.5 4.97L14.23 1.93ZM21.76 4.55L14.88 18.21L23.33 23.08L31.97 10.45L21.76 4.55ZM32.71 12.6L25.62 22.97C27.32 25.79 28.46 29.19 29.07 33.04C34.57 29.99 39.6 24.67 42.28 18.13L32.71 12.6ZM43.88 19.05C40.91 26.15 35.39 31.8 29.33 34.97C29.53 36.74 29.63 38.6 29.63 40.53C36.57 38.23 45.21 31.51 47.98 21.41L43.88 19.05ZM15.65 20.76C11.77 28.5 8.02 36.34 2.18 43.92L2.18 48.29L6.51 48.29C10.56 39.7 15.66 31.68 20.72 23.69L15.65 20.76L15.65 20.76Z" fill="#1F4E93" fill-opacity="1.000000" fill-rule="nonzero"/>
	</g>
</svg>
