<svg width="26.000000" height="10.137695" viewBox="0 0 26 10.1377" fill="none" xmlns="http://www.w3.org/2000/svg" xmlns:xlink="http://www.w3.org/1999/xlink">
	<desc>
			Created with Pixso.
	</desc>
	<defs/>
	<path id="Vector" d="M6.5 1.69C7.36 1.69 8.18 2.04 8.79 2.67C9.4 3.31 9.75 4.17 9.75 5.06C9.75 5.96 9.4 6.81 8.79 7.45C8.18 8.08 7.36 8.44 6.5 8.44C5.63 8.44 4.81 8.08 4.2 7.45C3.59 6.81 3.25 5.96 3.25 5.06C3.25 4.17 3.59 3.31 4.2 2.67C4.81 2.04 5.63 1.69 6.5 1.69ZM10.76 2.61C10.27 1.69 9.52 0.95 8.61 0.5C7.7 0.04 6.67 -0.11 5.67 0.07C4.68 0.24 3.76 0.74 3.04 1.48C2.33 2.23 1.85 3.18 1.69 4.22L0.81 4.22C0.59 4.22 0.39 4.31 0.23 4.46C0.08 4.62 0 4.84 0 5.06C0 5.28 0.08 5.5 0.23 5.66C0.39 5.82 0.59 5.9 0.81 5.9L1.69 5.9C1.89 7.16 2.54 8.29 3.5 9.07C4.47 9.85 5.68 10.22 6.9 10.12C8.12 10.01 9.26 9.43 10.09 8.49C10.91 7.56 11.37 6.33 11.37 5.06C11.37 4.61 11.54 4.18 11.85 3.87C12.15 3.55 12.56 3.37 13 3.37C13.43 3.37 13.84 3.55 14.14 3.87C14.45 4.18 14.62 4.61 14.62 5.06C14.62 6.33 15.08 7.56 15.9 8.49C16.73 9.43 17.87 10.01 19.09 10.12C20.31 10.22 21.52 9.85 22.49 9.07C23.45 8.29 24.1 7.16 24.3 5.9L25.18 5.9C25.4 5.9 25.6 5.82 25.76 5.66C25.91 5.5 26 5.28 26 5.06C26 4.84 25.91 4.62 25.76 4.46C25.6 4.31 25.4 4.22 25.18 4.22L24.3 4.22C24.14 3.18 23.66 2.23 22.95 1.48C22.23 0.74 21.31 0.24 20.32 0.07C19.32 -0.11 18.29 0.04 17.38 0.5C16.47 0.95 15.72 1.69 15.23 2.61C14.63 2.02 13.83 1.69 13 1.69C12.13 1.69 11.34 2.04 10.76 2.61ZM22.75 5.06C22.75 5.96 22.4 6.81 21.79 7.45C21.18 8.08 20.36 8.44 19.5 8.44C18.63 8.44 17.81 8.08 17.2 7.45C16.59 6.81 16.25 5.96 16.25 5.06C16.25 4.17 16.59 3.31 17.2 2.67C17.81 2.04 18.63 1.69 19.5 1.69C20.36 1.69 21.18 2.04 21.79 2.67C22.4 3.31 22.75 4.17 22.75 5.06Z" fill="#333333" fill-opacity="1.000000" fill-rule="nonzero"/>
</svg>
