<svg width="13.000000" height="13.000000" viewBox="0 0 13 13" fill="none" xmlns="http://www.w3.org/2000/svg" xmlns:xlink="http://www.w3.org/1999/xlink">
	<desc>
			Created with Pixso.
	</desc>
	<defs>
		<clipPath id="clip40_291">
			<rect id="material-symbols-light:event-sharp" rx="0.000000" width="12.000000" height="12.000000" transform="translate(0.500000 0.500000)" fill="white" fill-opacity="0"/>
		</clipPath>
	</defs>
	<rect id="material-symbols-light:event-sharp" rx="0.000000" width="12.000000" height="12.000000" transform="translate(0.500000 0.500000)" fill="#FFFFFF" fill-opacity="0"/>
	<g clip-path="url(#clip40_291)">
		<path id="Vector" d="M8.06 9.75C7.74 9.75 7.47 9.63 7.25 9.41C7.02 9.19 6.91 8.92 6.91 8.6C6.91 8.28 7.02 8.01 7.25 7.79C7.47 7.56 7.74 7.45 8.06 7.45C8.37 7.45 8.64 7.57 8.87 7.79C9.09 8.01 9.2 8.28 9.2 8.6C9.2 8.92 9.09 9.19 8.87 9.41C8.64 9.63 8.37 9.74 8.06 9.75ZM2.16 11.37L2.16 2.7L4 2.7L4 1.5L4.58 1.5L4.58 2.7L8.45 2.7L8.45 1.5L9 1.5L9 2.7L10.83 2.7L10.83 11.37L2.16 11.37ZM2.7 10.83L10.29 10.83L10.29 5.75L2.7 5.75L2.7 10.83Z" fill="#1F4E93" fill-opacity="1.000000" fill-rule="nonzero"/>
	</g>
</svg>
