<svg width="13.500000" height="13.500000" viewBox="0 0 13.5 13.5" fill="none" xmlns="http://www.w3.org/2000/svg" xmlns:xlink="http://www.w3.org/1999/xlink">
	<desc>
			Created with Pixso.
	</desc>
	<defs/>
	<path id="Vector" d="M2.71 5.84C3.79 7.96 5.53 9.69 7.65 10.78L9.3 9.13C9.51 8.93 9.81 8.86 10.07 8.95C10.91 9.23 11.82 9.38 12.75 9.38C13.16 9.38 13.5 9.71 13.5 10.13L13.5 12.75C13.5 13.16 13.16 13.5 12.75 13.5C5.7 13.5 0 7.79 0 0.75C0 0.33 0.33 0 0.75 0L3.37 0C3.78 0 4.12 0.33 4.12 0.75C4.12 1.68 4.27 2.58 4.55 3.42C4.63 3.69 4.57 3.98 4.36 4.19L2.71 5.84Z" fill="#1F4E93" fill-opacity="1.000000" fill-rule="nonzero"/>
</svg>
