<svg width="19.000000" height="19.024994" viewBox="0 0 19 19.025" fill="none" xmlns="http://www.w3.org/2000/svg" xmlns:xlink="http://www.w3.org/1999/xlink">
	<desc>
			Created with Pixso.
	</desc>
	<defs/>
	<path id="Vector" d="M9.5 19.02C8.18 19.02 6.95 18.77 5.79 18.27C4.63 17.77 3.63 17.1 2.77 16.24C1.92 15.39 1.24 14.38 0.74 13.23C0.24 12.07 -0.01 10.83 0 9.52C0 8.23 0.24 7.01 0.74 5.86C1.24 4.72 1.91 3.71 2.76 2.83C3.62 1.96 4.62 1.27 5.76 0.76C6.91 0.25 8.13 0 9.43 0C9.68 0 9.94 0.01 10.21 0.02C10.48 0.05 10.74 0.08 11.01 0.12C10.97 0.87 11.06 1.55 11.29 2.16C11.52 2.77 11.86 3.29 12.31 3.72C12.76 4.15 13.3 4.47 13.94 4.68C14.58 4.89 15.29 4.98 16.08 4.95C15.88 5.93 16.08 6.82 16.7 7.6C17.31 8.39 18.08 8.84 18.98 8.96L18.99 9.08C18.99 9.12 19 9.16 19 9.2C19 10.54 18.74 11.81 18.24 13C17.74 14.19 17.06 15.23 16.2 16.12C15.34 17.02 14.34 17.72 13.19 18.24C12.03 18.76 10.8 19.02 9.5 19.02ZM8 7.33C8.36 7.33 8.67 7.2 8.92 6.94C9.18 6.68 9.3 6.37 9.3 6.01C9.3 5.65 9.18 5.35 8.92 5.09C8.67 4.84 8.36 4.71 8 4.71C7.64 4.71 7.34 4.84 7.08 5.09C6.82 5.35 6.69 5.66 6.69 6.02C6.69 6.37 6.82 6.68 7.08 6.94C7.34 7.2 7.65 7.33 8 7.33L8 7.33ZM6 12.33C6.36 12.33 6.67 12.2 6.92 11.94C7.18 11.68 7.3 11.37 7.3 11.01C7.3 10.65 7.18 10.35 6.92 10.09C6.67 9.84 6.36 9.71 6 9.71C5.64 9.71 5.34 9.84 5.08 10.09C4.82 10.35 4.69 10.66 4.69 11.02C4.69 11.37 4.82 11.68 5.08 11.94C5.34 12.2 5.65 12.33 6 12.33L6 12.33ZM12.5 13.33C12.73 13.33 12.92 13.25 13.07 13.09C13.23 12.93 13.3 12.74 13.3 12.51C13.3 12.29 13.23 12.1 13.07 11.94C12.92 11.79 12.72 11.71 12.5 11.71C12.28 11.71 12.09 11.79 11.93 11.95C11.77 12.1 11.69 12.29 11.69 12.52C11.69 12.74 11.77 12.93 11.93 13.09C12.09 13.25 12.28 13.33 12.5 13.33ZM9.5 18.02C11.65 18.02 13.56 17.24 15.23 15.68C16.9 14.12 17.81 12.14 17.98 9.74C17.09 9.39 16.4 8.89 15.91 8.24C15.41 7.6 15.12 6.82 15.03 5.91C13.66 5.79 12.51 5.29 11.59 4.43C10.66 3.57 10.16 2.43 10.07 1.01C8.8 0.93 7.61 1.11 6.51 1.55C5.41 1.99 4.45 2.6 3.63 3.4C2.81 4.2 2.17 5.13 1.7 6.19C1.23 7.25 0.99 8.36 1 9.52C1 11.86 1.83 13.87 3.49 15.53C5.15 17.19 7.15 18.02 9.5 18.02Z" fill="#EFEFEF" fill-opacity="1.000000" fill-rule="nonzero"/>
</svg>
