<svg width="14.000000" height="18.000000" viewBox="0 0 14 18" fill="none" xmlns="http://www.w3.org/2000/svg" xmlns:xlink="http://www.w3.org/1999/xlink">
	<desc>
			Created with Pixso.
	</desc>
	<defs/>
	<path id="Vector" d="M7 18C7 18 14 11.6 14 6.75C14 4.95 13.26 3.24 11.94 1.97C10.63 0.71 8.85 0 7 0C5.14 0 3.36 0.71 2.05 1.97C0.73 3.24 0 4.95 0 6.75C0 11.6 7 18 7 18ZM7 10.12C6.07 10.12 5.18 9.76 4.52 9.13C3.86 8.5 3.5 7.64 3.5 6.75C3.5 5.85 3.86 4.99 4.52 4.36C5.18 3.73 6.07 3.37 7 3.37C7.92 3.37 8.81 3.73 9.47 4.36C10.13 4.99 10.5 5.85 10.5 6.75C10.5 7.64 10.13 8.5 9.47 9.13C8.81 9.76 7.92 10.12 7 10.12Z" fill="#1F4E93" fill-opacity="1.000000" fill-rule="nonzero"/>
</svg>
