<svg width="14.000000" height="14.000000" viewBox="0 0 14 14" fill="none" xmlns="http://www.w3.org/2000/svg" xmlns:xlink="http://www.w3.org/1999/xlink">
	<desc>
			Created with Pixso.
	</desc>
	<defs/>
	<path id="Vector" d="M2.81 6.05C3.93 8.26 5.74 10.05 7.94 11.18L9.65 9.47C9.86 9.26 10.17 9.19 10.44 9.28C11.31 9.57 12.25 9.72 13.22 9.72C13.64 9.72 14 10.08 14 10.5L14 13.22C14 13.65 13.64 14 13.22 14C5.91 14 0 8.08 0 0.77C0 0.34 0.35 0 0.77 0L3.5 0C3.92 0 4.27 0.34 4.27 0.77C4.27 1.75 4.43 2.68 4.72 3.55C4.8 3.82 4.74 4.13 4.52 4.34L2.81 6.05Z" fill="#1F4E93" fill-opacity="1.000000" fill-rule="nonzero"/>
</svg>
