<svg width="16.893555" height="16.892944" viewBox="0 0 16.8936 16.8929" fill="none" xmlns="http://www.w3.org/2000/svg" xmlns:xlink="http://www.w3.org/1999/xlink">
	<desc>
			Created with Pixso.
	</desc>
	<defs/>
	<path id="Vector" d="M12.48 10.84L11.66 10.84L10.84 10.84C11.44 10.14 12.24 9.27 12.48 8.38C12.73 7.49 12.64 6 12.48 5.09C12.03 2.41 10.25 0.49 7.56 0.16C6.61 0.04 5.18 -0.15 4.27 0.16C3.37 0.47 2.48 1.13 1.81 1.81C1.13 2.48 0.47 3.37 0.16 4.27C-0.15 5.17 0.04 6.61 0.16 7.56C0.49 10.25 2.41 12.03 5.09 12.48C6 12.64 7.49 12.73 8.38 12.48C9.27 12.24 10.14 11.44 10.84 10.84L10.84 11.66L10.84 12.48L14.95 16.59C15.34 16.99 16.2 16.99 16.59 16.59C16.99 16.2 16.99 15.34 16.59 14.95L12.48 10.84ZM6.73 10.84C4.34 10.84 1.81 9.13 1.81 6.73C1.81 4.34 4.34 1.81 6.73 1.81C9.13 1.81 10.84 4.34 10.84 6.73C10.84 9.13 9.13 10.84 6.73 10.84Z" fill="#EFEFEF" fill-opacity="1.000000" fill-rule="evenodd"/>
</svg>
